<svg xmlns="http://www.w3.org/2000/svg" viewBox="0 0 512 512">
  <defs>
    <linearGradient id="bg" x1="0" x2="1" y1="0" y2="1">
      <stop offset="0%" stop-color="#E9F5FF"/>
      <stop offset="56%" stop-color="#8CC2FF"/>
      <stop offset="100%" stop-color="#4A71D8"/>
    </linearGradient>
    <linearGradient id="front" x1="0" x2="0" y1="0" y2="1">
      <stop offset="0%" stop-color="#FFFFFF"/>
      <stop offset="100%" stop-color="#D5E4FF"/>
    </linearGradient>
    <linearGradient id="ribbon" x1="0" x2="1" y1="0" y2="1">
      <stop offset="0%" stop-color="#FF6D5B"/>
      <stop offset="100%" stop-color="#C61F40"/>
    </linearGradient>
  </defs>
  <rect x="24" y="24" width="464" height="464" rx="104" fill="url(#bg)"/>
  <path d="M24 128C24 70.562 70.562 24 128 24H322C355.137 24 382 50.863 382 84V428C382 461.137 355.137 488 322 488H128C70.562 488 24 441.438 24 384V128Z" fill="url(#front)"/>
  <path d="M24 128C24 70.562 70.562 24 128 24H322C355.137 24 382 50.863 382 84V116H24V128Z" fill="#FFFFFF" opacity="0.26"/>
  <path d="M300 24H384C441.438 24 488 70.562 488 128V254L394 220L300 254V24Z" fill="url(#ribbon)"/>
  <path d="M300 24H384C441.438 24 488 70.562 488 128V148H300V24Z" fill="#FF9A83" opacity="0.4"/>
</svg>
