<svg xmlns="http://www.w3.org/2000/svg" viewBox="0 0 512 512">
  <defs>
    <linearGradient id="bg" x1="0" x2="1" y1="0" y2="1">
      <stop offset="0%" stop-color="#E9F5FF"/>
      <stop offset="56%" stop-color="#8CC2FF"/>
      <stop offset="100%" stop-color="#4A71D8"/>
    </linearGradient>
    <linearGradient id="front" x1="0" x2="0" y1="0" y2="1">
      <stop offset="0%" stop-color="#FFFFFF"/>
      <stop offset="100%" stop-color="#D5E4FF"/>
    </linearGradient>
    <linearGradient id="ribbon" x1="0" x2="1" y1="0" y2="1">
      <stop offset="0%" stop-color="#FF6D5B"/>
      <stop offset="100%" stop-color="#C61F40"/>
    </linearGradient>
  </defs>
  <rect x="24" y="24" width="464" height="464" rx="104" fill="url(#bg)"/>
  <ellipse cx="250" cy="404" rx="140" ry="28" fill="#244C97" opacity="0.17"/>
  <rect x="104" y="116" width="232" height="274" rx="42" fill="#7E9FE0" opacity="0.62"/>
  <rect x="78" y="90" width="250" height="284" rx="42" fill="#A9C1EF" opacity="0.9"/>
  <rect x="54" y="122" width="250" height="284" rx="44" fill="url(#front)"/>
  <rect x="54" y="122" width="250" height="34" rx="44" fill="#FFFFFF" opacity="0.28"/>
  <rect x="88" y="172" width="144" height="18" rx="9" fill="#A5B9DE"/>
  <rect x="88" y="210" width="118" height="18" rx="9" fill="#B8C9E6"/>
  <rect x="88" y="248" width="136" height="18" rx="9" fill="#B8C9E6"/>
  <path d="M250 88H332C346 88 358 100 358 114V292L304 258L250 292V88Z" fill="url(#ribbon)"/>
  <path d="M250 88H332C346 88 358 100 358 114V136H250V88Z" fill="#FF9A83" opacity="0.42"/>
</svg>
