<svg xmlns="http://www.w3.org/2000/svg" viewBox="0 0 512 512">
  <defs>
    <linearGradient id="bg" x1="0" x2="1" y1="0" y2="1">
      <stop offset="0%" stop-color="#F6E8FF"/>
      <stop offset="50%" stop-color="#A35DFF"/>
      <stop offset="100%" stop-color="#5C33C4"/>
    </linearGradient>
    <radialGradient id="dial" cx="42%" cy="34%" r="70%">
      <stop offset="0%" stop-color="#FDFEFF"/>
      <stop offset="72%" stop-color="#BBCBFF"/>
      <stop offset="100%" stop-color="#728CDC"/>
    </radialGradient>
    <radialGradient id="core" cx="50%" cy="45%" r="55%">
      <stop offset="0%" stop-color="#FFF6A6"/>
      <stop offset="100%" stop-color="#FF8A49"/>
    </radialGradient>
  </defs>
  <rect x="24" y="24" width="464" height="464" rx="104" fill="url(#bg)"/>
  <ellipse cx="256" cy="400" rx="132" ry="28" fill="#2A175E" opacity="0.18"/>
  <circle cx="256" cy="256" r="154" fill="#3A2484" opacity="0.14"/>
  <circle cx="256" cy="256" r="140" fill="url(#dial)"/>
  <circle cx="256" cy="256" r="120" fill="none" stroke="#FFFFFF" stroke-width="10" opacity="0.36"/>
  <path d="M256 256L256 116A140 140 0 0 1 396 256Z" fill="#203C90"/>
  <path d="M256 256L396 256A140 140 0 0 1 354 356Z" fill="#5E86FF"/>
  <circle cx="256" cy="256" r="50" fill="url(#core)"/>
  <path d="M256 256L328 168" fill="none" stroke="#FFFFFF" stroke-linecap="round" stroke-width="16"/>
  <circle cx="256" cy="256" r="11" fill="#FFF8EF"/>
</svg>
