<svg xmlns="http://www.w3.org/2000/svg" width="1024" height="1024" viewBox="0 0 512 512">
  <title>Framed aspect ratio guides</title>
  <desc>An orange framing plate with opposing corner guides around a landscape aperture. Depth uses vector geometry and gradients without filter dependencies.</desc>
  <defs><linearGradient id="shell" x1="0" y1="0" x2="0.7" y2="1"><stop stop-color="#FFB856"/><stop offset="1" stop-color="#E96727"/></linearGradient><linearGradient id="light" x1="0" y1="0" x2="0.7" y2="1"><stop stop-color="#FFF4D5"/><stop offset="1" stop-color="#FFD48D"/></linearGradient><clipPath id="shellClip"><rect x="24" y="24" width="464" height="464" rx="104" fill="white"/></clipPath></defs>
  <rect x="24" y="30" width="464" height="464" rx="104" fill="#A54620"/><rect x="24" y="24" width="464" height="464" rx="104" fill="url(#shell)"/>
  <path d="M24 220 V128 Q24 24 128 24 H244 V78 H132 Q78 78 78 132 V220 Z" fill="url(#light)"/>
  <path d="M488 292 V384 Q488 488 384 488 H268 V434 H380 Q434 434 434 380 V292 Z" fill="#963B20"/>
  <path d="M126 176 H372 Q386 176 386 190 V332 Q386 346 372 346 H140 Q126 346 126 332 Z" fill="#E87729"/>
  <path d="M126 176 H372 Q386 176 386 190 V324 Q386 338 372 338 H140 Q126 338 126 324 Z" fill="#FFC16B"/>

</svg>
