<svg xmlns="http://www.w3.org/2000/svg" viewBox="0 0 512 512">
  <defs>
    <linearGradient id="bg" x1="0" x2="1" y1="0" y2="1">
      <stop offset="0%" stop-color="#FFC56A"/>
      <stop offset="46%" stop-color="#FF8C46"/>
      <stop offset="100%" stop-color="#D85A28"/>
    </linearGradient>
    <radialGradient id="surface" cx="34%" cy="28%" r="78%">
      <stop offset="0%" stop-color="#FFD58F" stop-opacity="0.16"/>
      <stop offset="52%" stop-color="#FFD58F" stop-opacity="0.035"/>
      <stop offset="100%" stop-color="#A43F20" stop-opacity="0"/>
    </radialGradient>
    <linearGradient id="guideLight" x1="0" x2="1" y1="0" y2="1">
      <stop offset="0%" stop-color="#FFDFA4"/>
      <stop offset="100%" stop-color="#FFB963"/>
    </linearGradient>
  </defs>
  <rect x="24" y="24" width="464" height="464" rx="104" fill="url(#bg)"/>
  <rect x="24" y="24" width="464" height="464" rx="104" fill="url(#surface)"/>
  <path d="M24 128C24 70.562 70.562 24 128 24H230V78H132C102.177 78 78 102.177 78 132V230H24V128Z" fill="url(#guideLight)"/>
  <path d="M488 384C488 441.438 441.438 488 384 488H282V434H380C409.823 434 434 409.823 434 380V282H488V384Z" fill="#A54120" opacity="0.92"/>
</svg>
