<svg xmlns="http://www.w3.org/2000/svg" viewBox="0 0 512 512">
  <defs>
    <clipPath id="squircleClip">
      <rect x="24" y="24" width="464" height="464" rx="106"/>
    </clipPath>
    <linearGradient id="base" x1="0" x2="1" y1="0" y2="1">
      <stop offset="0%" stop-color="#D9FFF8"/>
      <stop offset="48%" stop-color="#2BC2F1"/>
      <stop offset="100%" stop-color="#1275B8"/>
    </linearGradient>
  </defs>

  <rect x="24" y="24" width="464" height="464" rx="106" fill="url(#base)"/>
  <g clip-path="url(#squircleClip)">
    <ellipse cx="32" cy="326" rx="62" ry="18" fill="#F85D91" opacity="0.72"/>
    <ellipse cx="480" cy="318" rx="66" ry="19" fill="#F85D91" opacity="0.72"/>
  </g>
  <path d="M108 218C124 203 148 199 169 208" fill="none" stroke="#142334" stroke-width="9" stroke-linecap="round"/>
  <path d="M346 206C371 199 396 208 408 228" fill="none" stroke="#142334" stroke-width="9" stroke-linecap="round"/>
  <path d="M112 282C125 235 184 238 198 284" fill="none" stroke="#142334" stroke-width="13" stroke-linecap="round"/>
  <path d="M320 274C337 231 394 242 400 288" fill="none" stroke="#142334" stroke-width="13" stroke-linecap="round"/>
  <path d="M182 348C216 374 284 379 330 343C332 382 301 414 254 414C211 414 181 386 182 348Z" fill="#FFFFFF" stroke="#142334" stroke-width="10" stroke-linejoin="round"/>
  <path d="M184 350C205 365 229 375 253 378C228 381 206 374 188 359Z" fill="#9AA7AC" opacity="0.62"/>
  <path d="M329 345C310 364 286 375 257 378C286 382 309 374 326 356Z" fill="#9AA7AC" opacity="0.62"/>

  <rect x="24" y="24" width="464" height="464" rx="106" fill="none" stroke="#06314A" stroke-opacity="0.22" stroke-width="2"/>
</svg>
