<svg xmlns="http://www.w3.org/2000/svg" viewBox="0 0 512 512">
  <defs>
    <clipPath id="squircleClip">
      <rect x="24" y="24" width="464" height="464" rx="106"/>
    </clipPath>
    <linearGradient id="base" x1="0" x2="1" y1="0" y2="1">
      <stop offset="0%" stop-color="#D9FFF8"/>
      <stop offset="48%" stop-color="#2BC2F1"/>
      <stop offset="100%" stop-color="#1275B8"/>
    </linearGradient>
  </defs>

  <rect x="24" y="24" width="464" height="464" rx="106" fill="url(#base)"/>
  <g clip-path="url(#squircleClip)">
    <ellipse cx="31" cy="326" rx="67" ry="18" fill="#F85D91" opacity="0.72"/>
    <ellipse cx="481" cy="326" rx="67" ry="18" fill="#F85D91" opacity="0.72"/>
  </g>
  <path d="M96 196C111 181 136 177 158 185" fill="none" stroke="#142334" stroke-width="9" stroke-linecap="round"/>
  <path d="M354 185C379 178 405 188 419 211" fill="none" stroke="#142334" stroke-width="9" stroke-linecap="round"/>
  <path d="M126 270C126 218 192 218 192 270" fill="none" stroke="#142334" stroke-width="13" stroke-linecap="round"/>
  <path d="M320 270C320 218 386 218 386 270" fill="none" stroke="#142334" stroke-width="13" stroke-linecap="round"/>
  <path d="M194 338C198 386 229 414 256 414C284 414 316 386 320 338" fill="none" stroke="#142334" stroke-width="12" stroke-linecap="round"/>

  <rect x="24" y="24" width="464" height="464" rx="106" fill="none" stroke="#06314A" stroke-opacity="0.22" stroke-width="2"/>
</svg>
