<svg xmlns="http://www.w3.org/2000/svg" viewBox="0 0 512 512">
  <defs>
    <clipPath id="squircleClip">
      <rect x="24" y="24" width="464" height="464" rx="106"/>
    </clipPath>
    <linearGradient id="skin" x1="0" x2="1" y1="0" y2="1">
      <stop offset="0%" stop-color="#F4BE96"/>
      <stop offset="100%" stop-color="#D5846B"/>
    </linearGradient>
    <linearGradient id="hair" x1="0" x2="0.85" y1="0" y2="1">
      <stop offset="0%" stop-color="#FFFDF2"/>
      <stop offset="62%" stop-color="#F0F2EE"/>
      <stop offset="100%" stop-color="#C9D0CA"/>
    </linearGradient>
    <linearGradient id="suit" x1="0" x2="1" y1="0" y2="1">
      <stop offset="0%" stop-color="#B93B68"/>
      <stop offset="100%" stop-color="#742A4A"/>
    </linearGradient>
    <linearGradient id="innerSuit" x1="0" x2="1" y1="0" y2="1">
      <stop offset="0%" stop-color="#343D3F"/>
      <stop offset="68%" stop-color="#252C2E"/>
      <stop offset="100%" stop-color="#171D1F"/>
    </linearGradient>
    <filter id="softShadow" x="-8%" y="-8%" width="116%" height="120%" color-interpolation-filters="sRGB">
      <feDropShadow dx="0" dy="6" stdDeviation="6" flood-color="#2A1115" flood-opacity="0.16"/>
    </filter>
  </defs>

  <g transform="matrix(1.103448 0 0 1.103448 -26.482759 -26.482759)">
    <rect x="24" y="24" width="464" height="464" rx="106" fill="url(#skin)"/>
    <g clip-path="url(#squircleClip)">
    <path d="M24 166C82 136 162 122 256 122C350 122 430 136 488 166V372C432 402 352 418 256 418C160 418 80 402 24 372V166Z" fill="url(#skin)"/>
    <path d="M24 24H488V178L452 118L414 218L378 104L336 238L304 112L256 224L208 112L176 238L134 104L98 218L60 118L24 178V24Z" fill="#8B4A3F" opacity="0.12" transform="translate(0 7)"/>
    <path d="M24 24H488V178L452 118L414 218L378 104L336 238L304 112L256 224L208 112L176 238L134 104L98 218L60 118L24 178V24Z" fill="url(#hair)" filter="url(#softShadow)"/>

    <g filter="url(#softShadow)">
      <path d="M24 354C78 336 132 338 172 356L150 488H24V354Z" fill="url(#suit)"/>
      <path d="M168 354L256 402L340 356L356 488H146L168 354Z" fill="url(#innerSuit)"/>
      <path d="M156 442H346L356 488H146L156 442Z" fill="#0D1112" opacity="0.12"/>
      <path d="M488 354C434 336 380 338 340 356L356 488H488V354Z" fill="url(#suit)"/>
    </g>

    <path d="M132 242C165 256 201 250 230 228C205 264 165 273 132 254V242Z" fill="#C73538"/>
    <path d="M380 242C347 256 311 250 282 228C307 264 347 273 380 254V242Z" fill="#C73538"/>

    <path d="M206 330H306" fill="none" stroke="#6E3A34" stroke-width="7" stroke-linecap="round"/>
    </g>

    <rect x="24" y="24" width="464" height="464" rx="106" fill="none" stroke="#221717" stroke-opacity="0.18" stroke-width="2"/>
  </g>
</svg>
