<svg xmlns="http://www.w3.org/2000/svg" viewBox="0 0 512 512">
  <defs>
    <clipPath id="squircleClip">
      <rect x="24" y="24" width="464" height="464" rx="106"/>
    </clipPath>
    <linearGradient id="base" x1="0" x2="1" y1="0" y2="1">
      <stop offset="0%" stop-color="#E6FFF8"/>
      <stop offset="48%" stop-color="#26C8BA"/>
      <stop offset="100%" stop-color="#076575"/>
    </linearGradient>
    <linearGradient id="waveA" x1="0" x2="1" y1="0" y2="1">
      <stop offset="0%" stop-color="#B8FFF2"/>
      <stop offset="100%" stop-color="#1BA8B7"/>
    </linearGradient>
    <linearGradient id="waveB" x1="0" x2="1" y1="0" y2="1">
      <stop offset="0%" stop-color="#6AE6D7"/>
      <stop offset="100%" stop-color="#087684"/>
    </linearGradient>
    <linearGradient id="tailL" x1="0" x2="1" y1="0" y2="1">
      <stop offset="0%" stop-color="#ECFFFB"/>
      <stop offset="100%" stop-color="#66E7E1"/>
    </linearGradient>
    <linearGradient id="tailR" x1="0" x2="1" y1="0" y2="1">
      <stop offset="0%" stop-color="#A8FFF2"/>
      <stop offset="100%" stop-color="#087891"/>
    </linearGradient>
    <filter id="softShadow" x="-10%" y="-10%" width="120%" height="124%" color-interpolation-filters="sRGB">
      <feDropShadow dx="0" dy="8" stdDeviation="7" flood-color="#034D57" flood-opacity="0.22"/>
    </filter>
  </defs>

  <rect x="24" y="24" width="464" height="464" rx="106" fill="url(#base)"/>
  <g clip-path="url(#squircleClip)" transform="translate(0 30)">
    <path d="M24 315C78 285 142 283 205 309C277 338 344 339 416 302C444 288 468 283 488 287V488H24V315Z" fill="url(#waveA)"/>
    <path d="M24 445C93 412 165 409 240 435C330 466 405 459 488 410V488H24V445Z" fill="#045C72" opacity="0.2"/>
  </g>

  <g filter="url(#softShadow)" transform="translate(0 30)">
    <path d="M256 344C236 285 209 237 176 199C137 154 101 119 64 88C148 74 220 118 256 194C292 118 364 74 448 88C411 119 375 154 336 199C303 237 276 285 256 344Z" fill="#065E74" opacity="0.2"/>
    <path d="M256 194C220 118 148 74 64 88C79 161 129 231 205 286C228 303 246 326 256 344V194Z" fill="url(#tailL)"/>
    <path d="M256 194C292 118 364 74 448 88C433 161 383 231 307 286C284 303 266 326 256 344V194Z" fill="url(#tailR)"/>
    <path d="M126 108C169 108 213 139 240 188" fill="none" stroke="#FFFFFF" stroke-width="10" stroke-linecap="round" opacity="0.24"/>
  </g>

  <g clip-path="url(#squircleClip)" transform="translate(0 30)">
    <path d="M24 367C87 332 150 332 211 361C282 394 352 392 424 351C450 336 471 332 488 335V488H24V367Z" fill="url(#waveB)"/>
  </g>

</svg>
