<svg xmlns="http://www.w3.org/2000/svg" width="1024" height="1024" viewBox="0 0 512 512">
  <title>Mermaido tail and waves</title>
  <desc>An asymmetric seafoam mermaid tail curling up from teal waves. Depth uses vector geometry and gradients without filter dependencies.</desc>
  <defs><linearGradient id="sea" x1="0" y1="0" x2="0.7" y2="1"><stop stop-color="#178E9D"/><stop offset="1" stop-color="#064B67"/></linearGradient><linearGradient id="tail" x1="0" y1="0" x2="0.7" y2="1"><stop stop-color="#E0FFF0"/><stop offset="1" stop-color="#55DCC5"/></linearGradient><linearGradient id="wave" x1="0" y1="0" x2="0.7" y2="1"><stop stop-color="#49D8CB"/><stop offset="1" stop-color="#169DAA"/></linearGradient><clipPath id="shellClip"><rect x="24" y="24" width="464" height="464" rx="104" fill="white"/></clipPath></defs>
  <rect x="24" y="30" width="464" height="464" rx="104" fill="#06495B"/><rect x="24" y="24" width="464" height="464" rx="104" fill="url(#sea)"/>
  <g clip-path="url(#shellClip)">
    <path d="M24 328 Q106 292 192 325 T360 326 Q431 293 488 308 V488 H24 Z" fill="#259AA8"/>
    <path d="M256 218 C221 146 146 103 82 113 C99 192 159 246 216 265 C251 300 245 350 188 440 L253 449 C313 360 303 297 285 265 C356 248 414 190 431 113 C354 102 285 149 256 218 Z" fill="#063D55" transform="translate(5 9)"/>
    <path d="M256 218 C221 146 146 103 82 113 C99 192 159 246 216 265 C251 300 245 350 188 440 L253 449 C313 360 303 297 285 265 C356 248 414 190 431 113 C354 102 285 149 256 218 Z" fill="url(#tail)"/>
    <path d="M256 218 C285 149 354 102 431 113 C414 190 356 248 285 265 C303 297 313 360 253 449 L222 445 C291 341 267 280 256 218 Z" fill="#3DBCAA" opacity="0.65"/>
    <path d="M24 378 Q104 340 187 374 T354 375 Q434 334 488 352 V488 H24 Z" fill="url(#wave)"/>
  </g>

</svg>
