<svg xmlns="http://www.w3.org/2000/svg" width="1526" height="520" viewBox="0 0 1526 520" role="img" aria-label="Agentic Commerce Experience">
<defs>
<filter id="panelShadow" x="-10%" y="-10%" width="120%" height="140%">
<feDropShadow dx="0" dy="2" stdDeviation="8" flood-color="rgba(0,0,0,0.05)"/>
</filter>
<marker id="arrow" viewBox="0 0 11 12" markerWidth="11" markerHeight="12" refX="9.5" refY="6" orient="auto" markerUnits="userSpaceOnUse" overflow="visible">
<path d="M 1.5 1.0 L 9.5 6 L 1.5 11.0" fill="none" stroke="#8E877C" stroke-width="1.7" stroke-linecap="round" stroke-linejoin="round"/>
</marker>
</defs>
<rect width="1526" height="520" fill="#F7F4EE"/>
<text x="763.0" y="56" text-anchor="middle" font-family="Inter, ui-sans-serif, system-ui, sans-serif" font-size="32" font-weight="700" fill="#1F1F1C">Agentic Commerce Experience</text>
<text x="763.0" y="80" text-anchor="middle" font-family="Inter, ui-sans-serif, system-ui, sans-serif" font-size="14" font-weight="500" fill="#6D685F">AI agents acting as autonomous proxies for multi-step shopping and fulfillment</text>
<rect x="42.0" y="126.0" width="320.0" height="360.0" rx="18" fill="#FCFBF8" stroke="#E6E0D5" filter="url(#panelShadow)"/>
<text x="202.0" y="160.0" text-anchor="middle" font-family="Inter, ui-sans-serif, system-ui, sans-serif" font-size="14" font-weight="700" letter-spacing="0.06em" fill="#1F1F1C">User Intent &amp; Delegation</text>
<text x="202.0" y="180.0" text-anchor="middle" font-family="Inter, ui-sans-serif, system-ui, sans-serif" font-size="12" font-weight="600" fill="#1F1F1C">High-level goal setting by the user</text>
<text x="202.0" y="446.0" text-anchor="middle" font-family="Inter, ui-sans-serif, system-ui, sans-serif" font-size="11" font-weight="500" fill="#6D685F">The user provides broad constraints</text>
<text x="202.0" y="460.0" text-anchor="middle" font-family="Inter, ui-sans-serif, system-ui, sans-serif" font-size="11" font-weight="500" fill="#6D685F">(e.g., 'Find me trail shoes under</text>
<text x="202.0" y="474.0" text-anchor="middle" font-family="Inter, ui-sans-serif, system-ui, sans-serif" font-size="11" font-weight="500" fill="#6D685F">$150 by Friday').</text>
<rect x="382.0" y="126.0" width="320.0" height="360.0" rx="18" fill="#FCFBF8" stroke="#E6E0D5" filter="url(#panelShadow)"/>
<text x="542.0" y="160.0" text-anchor="middle" font-family="Inter, ui-sans-serif, system-ui, sans-serif" font-size="14" font-weight="700" letter-spacing="0.06em" fill="#1F1F1C">Autonomous Agent Core</text>
<text x="542.0" y="180.0" text-anchor="middle" font-family="Inter, ui-sans-serif, system-ui, sans-serif" font-size="12" font-weight="600" fill="#1F1F1C">Reasoning, planning, and evaluation</text>
<text x="542.0" y="194.0" text-anchor="middle" font-family="Inter, ui-sans-serif, system-ui, sans-serif" font-size="12" font-weight="600" fill="#1F1F1C">loop</text>
<text x="542.0" y="446.0" text-anchor="middle" font-family="Inter, ui-sans-serif, system-ui, sans-serif" font-size="11" font-weight="500" fill="#6D685F">Agent breaks down the goal into</text>
<text x="542.0" y="460.0" text-anchor="middle" font-family="Inter, ui-sans-serif, system-ui, sans-serif" font-size="11" font-weight="500" fill="#6D685F">executable search and comparison</text>
<text x="542.0" y="474.0" text-anchor="middle" font-family="Inter, ui-sans-serif, system-ui, sans-serif" font-size="11" font-weight="500" fill="#6D685F">tasks.</text>
<rect x="722.0" y="126.0" width="420.0" height="360.0" rx="18" fill="#FCFBF8" stroke="#E6E0D5" filter="url(#panelShadow)"/>
<text x="932.0" y="160.0" text-anchor="middle" font-family="Inter, ui-sans-serif, system-ui, sans-serif" font-size="14" font-weight="700" letter-spacing="0.06em" fill="#1F1F1C">Marketplace Interaction</text>
<text x="932.0" y="180.0" text-anchor="middle" font-family="Inter, ui-sans-serif, system-ui, sans-serif" font-size="12" font-weight="600" fill="#1F1F1C">Sourcing and negotiating with external vendors</text>
<text x="932.0" y="460.0" text-anchor="middle" font-family="Inter, ui-sans-serif, system-ui, sans-serif" font-size="11" font-weight="500" fill="#6D685F">Agent queries multiple sources in parallel to find</text>
<text x="932.0" y="474.0" text-anchor="middle" font-family="Inter, ui-sans-serif, system-ui, sans-serif" font-size="11" font-weight="500" fill="#6D685F">the best match.</text>
<rect x="1162.0" y="126.0" width="322.0" height="360.0" rx="18" fill="#FCFBF8" stroke="#E6E0D5" filter="url(#panelShadow)"/>
<text x="1323.0" y="160.0" text-anchor="middle" font-family="Inter, ui-sans-serif, system-ui, sans-serif" font-size="14" font-weight="700" letter-spacing="0.06em" fill="#1F1F1C">Execution &amp; Monitoring</text>
<text x="1323.0" y="180.0" text-anchor="middle" font-family="Inter, ui-sans-serif, system-ui, sans-serif" font-size="12" font-weight="600" fill="#1F1F1C">Transaction completion and fulfillment</text>
<text x="1323.0" y="194.0" text-anchor="middle" font-family="Inter, ui-sans-serif, system-ui, sans-serif" font-size="12" font-weight="600" fill="#1F1F1C">tracking</text>
<text x="1323.0" y="460.0" text-anchor="middle" font-family="Inter, ui-sans-serif, system-ui, sans-serif" font-size="11" font-weight="500" fill="#6D685F">Agent handles the final purchase and</text>
<text x="1323.0" y="474.0" text-anchor="middle" font-family="Inter, ui-sans-serif, system-ui, sans-serif" font-size="11" font-weight="500" fill="#6D685F">keeps the user updated on shipping.</text>
<path d="M 160.5 246.0 L 169.5 246.0 Q 178.5 246.0 178.5 255.0 L 178.5 336.9 Q 178.5 346.9 168.5 346.9 L 66.0 346.9" fill="none" stroke="#8E877C" stroke-width="1.7" marker-end="url(#arrow)"/>
<path d="M 187.0 346.9 L 196.0 346.9 Q 205.0 346.9 205.0 337.9 L 205.0 245.0 Q 205.0 235.0 215.0 235.0 L 421.5 235.0" fill="none" stroke="#8E877C" stroke-width="1.7" marker-end="url(#arrow)"/>
<path d="M 480.5 258.0 L 480.5 276.0" fill="none" stroke="#8E877C" stroke-width="1.7" marker-end="url(#arrow)"/>
<path d="M 555.0 299.0 L 564.0 299.0 Q 573.0 299.0 573.0 290.0 L 573.0 245.0 Q 573.0 235.0 583.0 235.0 L 746.0 235.0" fill="none" stroke="#8E877C" stroke-width="1.7" marker-end="url(#arrow)"/>
<path d="M 480.5 322.0 L 480.5 331.0 Q 480.5 340.0 489.5 340.0 L 946.0 340.0 Q 956.0 340.0 956.0 330.0 L 956.0 212.0" fill="none" stroke="#8E877C" stroke-width="1.7" marker-end="url(#arrow)"/>
<path d="M 810.0 258.0 L 810.0 204.0 Q 810.0 194.0 820.0 194.0 L 1088.0 194.0 Q 1097.0 194.0 1097.0 203.0 L 1097.0 212.0" fill="none" stroke="#8E877C" stroke-width="1.7" marker-end="url(#arrow)"/>
<path d="M 1020.0 235.0 L 1038.0 235.0" fill="none" stroke="#8E877C" stroke-width="1.7" marker-end="url(#arrow)"/>
<path d="M 1156.0 235.0 L 1186.0 235.0" fill="none" stroke="#8E877C" stroke-width="1.7" marker-end="url(#arrow)"/>
<path d="M 1250.0 258.0 L 1250.0 276.0" fill="none" stroke="#8E877C" stroke-width="1.7" marker-end="url(#arrow)"/>
<path d="M 1250.0 322.0 L 1250.0 331.0 Q 1250.0 340.0 1259.0 340.0 L 1386.0 340.0 Q 1396.0 340.0 1396.0 330.0 L 1396.0 212.0" fill="none" stroke="#8E877C" stroke-width="1.7" marker-end="url(#arrow)"/>
<circle cx="126.5" cy="246.0" r="34.0" fill="#FFFFFF" stroke="#DAD4CA" stroke-width="1.4"/>
<circle cx="126.5" cy="238.0" r="8" fill="none" stroke="#35C89B" stroke-width="2"/>
<path d="M 114.5 259.0 C 116.5 248.0, 136.5 248.0, 138.5 259.0" fill="none" stroke="#35C89B" stroke-width="2"/>
<text x="126.5" y="298.0" text-anchor="middle" font-family="Inter, ui-sans-serif, system-ui, sans-serif" font-size="12" font-weight="500" fill="#1F1F1C">Shopper</text>
<rect x="421.5" y="212.0" width="118.0" height="46.0" rx="8" fill="#FCE7D8" stroke="#F27A2B" stroke-width="2"/>
<text x="480.5" y="239.0" text-anchor="middle" font-family="Inter, ui-sans-serif, system-ui, sans-serif" font-size="13" font-weight="500" fill="#1F1F1C">LLM Planner</text>
<rect x="746.0" y="212.0" width="128.0" height="46.0" rx="8" fill="#FFFFFF" stroke="#DAD4CA" stroke-width="1.2"/>
<text x="810.0" y="239.0" text-anchor="middle" font-family="Inter, ui-sans-serif, system-ui, sans-serif" font-size="13" font-weight="500" fill="#1F1F1C">Retailer API A</text>
<rect x="892.0" y="212.0" width="128.0" height="46.0" rx="8" fill="#FFFFFF" stroke="#DAD4CA" stroke-width="1.2"/>
<text x="956.0" y="239.0" text-anchor="middle" font-family="Inter, ui-sans-serif, system-ui, sans-serif" font-size="13" font-weight="500" fill="#1F1F1C">Retailer API B</text>
<rect x="1038.0" y="212.0" width="118.0" height="46.0" rx="8" fill="#FFFFFF" stroke="#DAD4CA" stroke-width="1.2"/>
<text x="1097.0" y="231.5" text-anchor="middle" font-family="Inter, ui-sans-serif, system-ui, sans-serif" font-size="13" font-weight="500" fill="#1F1F1C">Cross-Vendor</text>
<text x="1097.0" y="246.5" text-anchor="middle" font-family="Inter, ui-sans-serif, system-ui, sans-serif" font-size="13" font-weight="500" fill="#1F1F1C">Analysis</text>
<rect x="1186.0" y="212.0" width="128.0" height="46.0" rx="8" fill="#EAF4FF" stroke="#58A6F4" stroke-width="2"/>
<text x="1250.0" y="239.0" text-anchor="middle" font-family="Inter, ui-sans-serif, system-ui, sans-serif" font-size="13" font-weight="500" fill="#1F1F1C">Secure Payment</text>
<rect x="1332.0" y="212.0" width="128.0" height="46.0" rx="8" fill="#FFFFFF" stroke="#DAD4CA" stroke-width="1.2"/>
<text x="1396.0" y="239.0" text-anchor="middle" font-family="Inter, ui-sans-serif, system-ui, sans-serif" font-size="13" font-weight="500" fill="#1F1F1C">Track Delivery</text>
<rect x="406.0" y="276.0" width="149.0" height="46.0" rx="8" fill="#FFFFFF" stroke="#DAD4CA" stroke-width="1.2"/>
<text x="480.5" y="303.0" text-anchor="middle" font-family="Inter, ui-sans-serif, system-ui, sans-serif" font-size="13" font-weight="500" fill="#1F1F1C">Evaluation Engine</text>
<rect x="1191.0" y="276.0" width="118.0" height="46.0" rx="8" fill="#FFFFFF" stroke="#DAD4CA" stroke-width="1.2"/>
<text x="1250.0" y="303.0" text-anchor="middle" font-family="Inter, ui-sans-serif, system-ui, sans-serif" font-size="13" font-weight="500" fill="#1F1F1C">Place Order</text>
<rect x="66.0" y="323.9" width="121.0" height="46.0" rx="8" fill="#FFFFFF" stroke="#DAD4CA" stroke-width="1.2"/>
<text x="126.5" y="350.9" text-anchor="middle" font-family="Inter, ui-sans-serif, system-ui, sans-serif" font-size="13" font-weight="500" fill="#1F1F1C">Define Intent</text>
</svg>