<svg xmlns="http://www.w3.org/2000/svg" width="628" height="520" viewBox="0 0 628 520" role="img" aria-label="Canonical Semantic Pictograms">
<defs>
<filter id="panelShadow" x="-10%" y="-10%" width="120%" height="140%">
<feDropShadow dx="0" dy="2" stdDeviation="8" flood-color="rgba(0,0,0,0.05)"/>
</filter>
<marker id="arrow" viewBox="0 0 11 12" markerWidth="11" markerHeight="12" refX="9.5" refY="6" orient="auto" markerUnits="userSpaceOnUse" overflow="visible">
<path d="M 1.5 1.0 L 9.5 6 L 1.5 11.0" fill="none" stroke="#8E877C" stroke-width="1.7" stroke-linecap="round" stroke-linejoin="round"/>
</marker>
</defs>
<rect width="628" height="520" fill="#F7F4EE"/>
<text x="314.0" y="56" text-anchor="middle" font-family="Inter, ui-sans-serif, system-ui, sans-serif" font-size="32" font-weight="700" fill="#1F1F1C">Canonical Semantic Pictograms</text>
<text x="314.0" y="80" text-anchor="middle" font-family="Inter, ui-sans-serif, system-ui, sans-serif" font-size="14" font-weight="500" fill="#6D685F">Reference shapes for people, cloud systems, storage, and security</text>
<rect x="122.1" y="126.0" width="383.8" height="360.0" rx="18" fill="#FCFBF8" stroke="#E6E0D5" filter="url(#panelShadow)"/>
<text x="314.0" y="160.0" text-anchor="middle" font-family="Inter, ui-sans-serif, system-ui, sans-serif" font-size="14" font-weight="700" letter-spacing="0.06em" fill="#1F1F1C">Semantic Nodes</text>
<text x="314.0" y="180.0" text-anchor="middle" font-family="Inter, ui-sans-serif, system-ui, sans-serif" font-size="12" font-weight="600" fill="#1F1F1C">Use these badge-style pictograms when the node</text>
<text x="314.0" y="194.0" text-anchor="middle" font-family="Inter, ui-sans-serif, system-ui, sans-serif" font-size="12" font-weight="600" fill="#1F1F1C">type itself carries meaning</text>
<text x="314.0" y="460.0" text-anchor="middle" font-family="Inter, ui-sans-serif, system-ui, sans-serif" font-size="11" font-weight="500" fill="#6D685F">A simple visual reference for the canonical</text>
<text x="314.0" y="474.0" text-anchor="middle" font-family="Inter, ui-sans-serif, system-ui, sans-serif" font-size="11" font-weight="500" fill="#6D685F">non-rectangular node shapes.</text>
<circle cx="188.1" cy="270.0" r="34.0" fill="#FFFFFF" stroke="#DAD4CA" stroke-width="1.4"/>
<circle cx="188.1" cy="262.0" r="8" fill="none" stroke="#35C89B" stroke-width="2"/>
<path d="M 176.1 283.0 C 178.1 272.0, 198.1 272.0, 200.1 283.0" fill="none" stroke="#35C89B" stroke-width="2"/>
<text x="188.1" y="322.0" text-anchor="middle" font-family="Inter, ui-sans-serif, system-ui, sans-serif" font-size="12" font-weight="500" fill="#1F1F1C">User</text>
<circle cx="274.1" cy="270.0" r="34.0" fill="#FFFFFF" stroke="#DAD4CA" stroke-width="1.4"/>
<path d="M77.258,37.494c-1.375,0-2.764,0.164-4.276,0.511c-4.115-9.401-13.534-15.606-23.957-15.606 c-13.11,0-24.034,9.643-25.863,22.363c-1.114-0.215-2.249-0.323-3.395-0.323c-9.824,0-17.816,7.759-17.816,17.529 C1.95,71.74,9.942,79.5,19.767,79.5h57.491c11.726,0,21.266-9.308,21.266-20.981C98.523,46.82,88.983,37.494,77.258,37.494z M77.258,75.5H19.767c-7.618,0-13.816-5.966-13.816-13.532c0-7.565,6.198-13.625,13.816-13.625c1.401,0,2.782,0.255,4.093,0.663 l0.458,0.169c0.591,0.186,1.234,0.102,1.745-0.25c0.51-0.354,0.826-0.918,0.857-1.537c0.595-11.772,10.304-20.992,22.104-20.992 c9.319,0,17.689,5.851,20.828,14.557c0.063,0.175,0.15,0.34,0.26,0.491l0.078,0.109c0.497,0.691,1.378,0.992,2.195,0.748 c1.863-0.558,3.365-0.806,4.872-0.806c9.521,0,17.266,7.532,17.266,17.024C94.523,67.987,86.778,75.5,77.258,75.5z" fill="#35C89B" transform="translate(253.1 249.0) scale(0.420)"/>
<text x="274.1" y="322.0" text-anchor="middle" font-family="Inter, ui-sans-serif, system-ui, sans-serif" font-size="12" font-weight="500" fill="#1F1F1C">Cloud</text>
<circle cx="360.1" cy="270.0" r="34.0" fill="#FFFFFF" stroke="#DAD4CA" stroke-width="1.4"/>
<ellipse cx="360.1" cy="258.0" rx="14" ry="5.5" fill="#FFFFFF" stroke="#35C89B" stroke-width="1.8"/>
<path d="M 346.1 258.0 L 346.1 282.0 M 374.1 258.0 L 374.1 282.0" fill="none" stroke="#35C89B" stroke-width="1.8" stroke-linecap="round"/>
<path d="M 346.1 282.0 A 14 5.5 0 0 0 374.1 282.0" fill="none" stroke="#35C89B" stroke-width="1.8"/>
<path d="M 346.1 269.0 A 14 5.5 0 0 0 374.1 269.0" fill="none" stroke="#35C89B" stroke-width="1.4"/>
<text x="360.1" y="322.0" text-anchor="middle" font-family="Inter, ui-sans-serif, system-ui, sans-serif" font-size="12" font-weight="500" fill="#1F1F1C">Storage</text>
<circle cx="446.1" cy="270.0" r="34.0" fill="#FFFFFF" stroke="#DAD4CA" stroke-width="1.4"/>
<path d="M 436.1 266.0 A 10 10 0 0 1 456.1 266.0" fill="none" stroke="#35C89B" stroke-width="2" stroke-linecap="round"/>
<rect x="432.1" y="267.0" width="28" height="22" rx="6" fill="#FFFFFF" stroke="#35C89B" stroke-width="1.8"/>
<circle cx="446.1" cy="277.0" r="2.8" fill="#35C89B"/>
<path d="M 446.1 279.8 L 446.1 284.5" fill="none" stroke="#35C89B" stroke-width="1.8" stroke-linecap="round"/>
<text x="446.1" y="322.0" text-anchor="middle" font-family="Inter, ui-sans-serif, system-ui, sans-serif" font-size="12" font-weight="500" fill="#1F1F1C">Security</text>
</svg>